# This file uses centimeters as units for non-parametric coordinates.

mtllib coralBase.mtl
g default
v 0.846725 -0.162809 -0.275118
v 0.720267 -0.162809 -0.523305
v 0.523305 -0.162809 -0.720267
v 0.275117 -0.162809 -0.846725
v -0.000000 -0.162809 -0.890299
v -0.275118 -0.162809 -0.846725
v -0.523305 -0.162809 -0.720267
v -0.720267 -0.162809 -0.523304
v -0.846724 -0.162809 -0.275117
v -0.890299 -0.162809 -0.000000
v -0.846724 -0.162809 0.275117
v -0.720267 -0.162809 0.523304
v -0.523304 -0.162809 0.720267
v -0.275117 -0.162809 0.846724
v -0.000000 -0.162809 0.890299
v 0.275117 -0.162809 0.846724
v 0.523304 -0.162809 0.720267
v 0.720267 -0.162809 0.523304
v 0.846724 -0.162809 0.275117
v 0.890298 -0.162809 -0.000000
v 0.951057 0.737442 -0.309017
v 0.809018 0.828346 -0.587786
v 0.587786 0.784541 -0.809017
v 0.309017 0.790373 -0.951057
v 0.000000 0.750155 -1.000000
v -0.309017 0.752731 -0.951057
v -0.587785 0.730756 -0.809017
v -0.809017 0.757285 -0.587785
v -0.951057 0.740622 -0.309017
v -1.000000 0.801975 0.000000
v -0.951057 0.795204 0.309017
v -0.815435 0.788786 0.587785
v -0.587785 0.814458 0.809017
v -0.309017 0.776754 0.951057
v -0.000000 0.763667 1.000000
v 0.309017 0.654614 0.951057
v 0.587785 0.628441 0.809017
v 0.809017 0.624079 0.587785
v 0.951057 0.563009 0.309017
v 1.000000 0.680787 0.000000
v -0.000000 -0.162809 -0.000000
v 0.000000 0.846548 0.000000
vt 0.648603 0.107966
vt 0.626409 0.064408
vt 0.591842 0.029841
vt 0.548284 0.007647
vt 0.500000 -0.000000
vt 0.451716 0.007647
vt 0.408159 0.029841
vt 0.373591 0.064409
vt 0.351397 0.107966
vt 0.343750 0.156250
vt 0.351397 0.204534
vt 0.373591 0.248091
vt 0.408159 0.282659
vt 0.451716 0.304853
vt 0.500000 0.312500
vt 0.548284 0.304853
vt 0.591841 0.282659
vt 0.626409 0.248091
vt 0.648603 0.204534
vt 0.656250 0.156250
vt 0.375000 0.312500
vt 0.387500 0.312500
vt 0.400000 0.312500
vt 0.412500 0.312500
vt 0.425000 0.312500
vt 0.437500 0.312500
vt 0.450000 0.312500
vt 0.462500 0.312500
vt 0.475000 0.312500
vt 0.487500 0.312500
vt 0.500000 0.312500
vt 0.512500 0.312500
vt 0.525000 0.312500
vt 0.537500 0.312500
vt 0.550000 0.312500
vt 0.562500 0.312500
vt 0.575000 0.312500
vt 0.587500 0.312500
vt 0.600000 0.312500
vt 0.612500 0.312500
vt 0.625000 0.312500
vt 0.375000 0.688440
vt 0.387500 0.688440
vt 0.400000 0.688440
vt 0.412500 0.688440
vt 0.425000 0.688440
vt 0.437500 0.688440
vt 0.450000 0.688440
vt 0.462500 0.688440
vt 0.475000 0.688440
vt 0.487500 0.688440
vt 0.500000 0.688440
vt 0.512500 0.688440
vt 0.525000 0.688440
vt 0.537500 0.688440
vt 0.550000 0.688440
vt 0.562500 0.688440
vt 0.575000 0.688440
vt 0.587500 0.688440
vt 0.600000 0.688440
vt 0.612500 0.688440
vt 0.625000 0.688440
vt 0.648603 0.795466
vt 0.626409 0.751908
vt 0.591842 0.717341
vt 0.548284 0.695147
vt 0.500000 0.687500
vt 0.451716 0.695147
vt 0.408159 0.717341
vt 0.373591 0.751909
vt 0.351397 0.795466
vt 0.343750 0.843750
vt 0.351397 0.892034
vt 0.373591 0.935591
vt 0.408159 0.970159
vt 0.451716 0.992353
vt 0.500000 1.000000
vt 0.548284 0.992353
vt 0.591841 0.970159
vt 0.626409 0.935591
vt 0.648603 0.892034
vt 0.656250 0.843750
vt 0.500000 0.150000
vt 0.500000 0.837500
vn 0.937447 -0.119877 0.326838
vn 0.800002 -0.113598 0.589145
vn 0.790722 -0.113433 0.601574
vn 0.923146 -0.118497 0.365732
vn 0.588145 -0.113644 0.800731
vn 0.596995 -0.113560 0.794167
vn 0.311463 -0.115632 0.943197
vn 0.322278 -0.115545 0.939567
vn 0.005313 -0.118016 0.992998
vn 0.016398 -0.117925 0.992887
vn -0.304152 -0.119716 0.945071
vn -0.298108 -0.119687 0.946999
vn -0.584044 -0.120338 0.802752
vn -0.585120 -0.120337 0.801968
vn -0.804030 -0.119695 0.582416
vn -0.805951 -0.119687 0.579757
vn -0.946325 -0.118171 0.300839
vn -0.949948 -0.118056 0.289244
vn -0.993353 -0.114860 0.007498
vn -0.993076 -0.114640 0.025629
vn -0.946868 -0.115151 0.300301
vn -0.948084 -0.115100 0.296460
vn -0.801798 -0.116431 0.586144
vn -0.798484 -0.116398 0.590657
vn -0.582618 -0.114351 0.804662
vn -0.585937 -0.114371 0.802245
vn -0.313609 -0.115266 0.942530
vn -0.328200 -0.115101 0.937569
vn -0.017597 -0.120465 0.992562
vn -0.055876 -0.119309 0.991284
vn 0.286343 -0.129934 0.949276
vn 0.252416 -0.128719 0.959019
vn 0.578248 -0.136459 0.804368
vn 0.570624 -0.136376 0.809808
vn 0.794495 -0.140405 0.590816
vn 0.781682 -0.139952 0.607773
vn 0.944419 -0.141410 0.296776
vn 0.947882 -0.141227 0.285611
vn 0.990991 -0.131106 0.027350
vn 0.988624 -0.128577 0.078036
vn 0.000000 -1.000000 0.000000
vn 0.000000 -1.000000 0.000000
vn 0.000000 -1.000000 0.000000
vn 0.000000 -1.000000 0.000000
vn 0.000000 -1.000000 0.000000
vn 0.000000 -1.000000 0.000000
vn 0.000000 -1.000000 0.000000
vn 0.000000 -1.000000 0.000000
vn 0.000000 -1.000000 0.000000
vn 0.000000 -1.000000 0.000000
vn 0.000000 -1.000000 0.000000
vn 0.000000 -1.000000 0.000000
vn 0.000000 -1.000000 0.000000
vn 0.000000 -1.000000 0.000000
vn 0.000000 -1.000000 0.000000
vn 0.000000 -1.000000 0.000000
vn 0.000000 -1.000000 0.000000
vn 0.000000 -1.000000 0.000000
vn 0.000000 -1.000000 0.000000
vn 0.000000 -1.000000 0.000000
vn 0.000000 -1.000000 0.000000
vn 0.171137 0.967716 0.185033
vn 0.060393 0.996806 0.052256
vn 0.054440 0.998026 0.031304
vn -0.012746 0.996247 0.085617
vn -0.036221 0.996844 0.070648
vn -0.059764 0.993607 0.095776
vn -0.058987 0.995128 0.078998
vn -0.061784 0.993337 0.097284
vn -0.062371 0.995908 0.065395
vn -0.078308 0.991998 0.099032
vn -0.044350 0.995003 0.089452
vn -0.042286 0.998466 0.035752
vn -0.064440 0.997884 0.008664
vn -0.003293 0.999301 0.037245
vn 0.055881 0.994271 0.091122
vn 0.200402 0.976366 0.080922
vn 0.248800 0.961907 0.113284
vn 0.164101 0.975896 0.143870
vn 0.239036 0.970258 0.038225
vn 0.234601 0.959158 0.158048
vn 0.156992 0.947097 0.279928
s 1
g pCylinder1
usemtl initialShadingGroup
f 1/21/1 2/22/2 22/43/3 21/42/4
f 2/22/2 3/23/5 23/44/6 22/43/3
f 3/23/5 4/24/7 24/45/8 23/44/6
f 4/24/7 5/25/9 25/46/10 24/45/8
f 5/25/9 6/26/11 26/47/12 25/46/10
f 6/26/11 7/27/13 27/48/14 26/47/12
f 7/27/13 8/28/15 28/49/16 27/48/14
f 8/28/15 9/29/17 29/50/18 28/49/16
f 9/29/17 10/30/19 30/51/20 29/50/18
f 10/30/19 11/31/21 31/52/22 30/51/20
f 11/31/21 12/32/23 32/53/24 31/52/22
f 12/32/23 13/33/25 33/54/26 32/53/24
f 13/33/25 14/34/27 34/55/28 33/54/26
f 14/34/27 15/35/29 35/56/30 34/55/28
f 15/35/29 16/36/31 36/57/32 35/56/30
f 16/36/31 17/37/33 37/58/34 36/57/32
f 17/37/33 18/38/35 38/59/36 37/58/34
f 18/38/35 19/39/37 39/60/38 38/59/36
f 19/39/37 20/40/39 40/61/40 39/60/38
f 20/40/39 1/41/1 21/62/4 40/61/40
s 2
f 2/2/41 1/1/42 41/83/43
f 3/3/44 2/2/41 41/83/43
f 4/4/45 3/3/44 41/83/43
f 5/5/46 4/4/45 41/83/43
f 6/6/47 5/5/46 41/83/43
f 7/7/48 6/6/47 41/83/43
f 8/8/49 7/7/48 41/83/43
f 9/9/50 8/8/49 41/83/43
f 10/10/51 9/9/50 41/83/43
f 11/11/52 10/10/51 41/83/43
f 12/12/53 11/11/52 41/83/43
f 13/13/54 12/12/53 41/83/43
f 14/14/55 13/13/54 41/83/43
f 15/15/56 14/14/55 41/83/43
f 16/16/57 15/15/56 41/83/43
f 17/17/58 16/16/57 41/83/43
f 18/18/59 17/17/58 41/83/43
f 19/19/60 18/18/59 41/83/43
f 20/20/61 19/19/60 41/83/43
f 1/1/42 20/20/61 41/83/43
s 3
f 21/81/62 22/80/63 42/84/64
f 22/80/63 23/79/65 42/84/64
f 23/79/65 24/78/66 42/84/64
f 24/78/66 25/77/67 42/84/64
f 25/77/67 26/76/68 42/84/64
f 26/76/68 27/75/69 42/84/64
f 27/75/69 28/74/70 42/84/64
f 28/74/70 29/73/71 42/84/64
f 29/73/71 30/72/72 42/84/64
f 30/72/72 31/71/73 42/84/64
f 31/71/73 32/70/74 42/84/64
f 32/70/74 33/69/75 42/84/64
f 33/69/75 34/68/76 42/84/64
f 34/68/76 35/67/77 42/84/64
f 35/67/77 36/66/78 42/84/64
f 36/66/78 37/65/79 42/84/64
f 37/65/79 38/64/80 42/84/64
f 38/64/80 39/63/81 42/84/64
f 39/63/81 40/82/82 42/84/64
f 40/82/82 21/81/62 42/84/64
