# This file uses centimeters as units for non-parametric coordinates.

mtllib squareFish.mtl
g default
v -0.584914 -0.304141 0.046599
v 0.819928 -0.118801 0.094838
v -0.584914 0.328461 0.046599
v 0.823819 0.123596 0.094838
v -0.584914 0.328461 -0.046599
v 0.823819 0.123596 -0.094838
v -0.584914 -0.304141 -0.046599
v 0.819928 -0.118801 -0.094838
v -0.511321 0.503777 0.086056
v -0.511321 0.503777 -0.086056
v -0.440284 -0.391423 -0.086056
v -0.440284 -0.391423 0.086056
v 0.400252 0.546799 0.086056
v 0.400252 0.546799 -0.086056
v 0.400252 -0.388705 -0.086056
v 0.400252 -0.388705 0.086056
v 0.034213 0.620094 0.086056
v 0.034213 0.620094 -0.086056
v -0.072402 -0.478403 -0.086056
v -0.072402 -0.478403 0.086056
v -0.354554 0.099220 0.026597
v -0.354554 0.099220 -0.026597
v -0.348437 -0.053012 -0.026597
v -0.348437 -0.053012 0.026597
v 0.628698 0.352390 0.086056
v 0.628698 0.352390 -0.086056
v 0.628698 -0.317586 -0.086056
v 0.628698 -0.317586 0.086056
v 0.034213 0.620094 -0.003361
v -0.511321 0.503777 -0.003361
v -0.354554 0.099220 -0.001039
v -0.584914 0.328461 -0.001820
v -0.584914 -0.304141 -0.001820
v -0.348437 -0.053012 -0.001039
v -0.440284 -0.391423 -0.003361
v -0.072402 -0.478403 -0.003361
v 0.400252 -0.388705 -0.003361
v 0.628698 -0.317586 -0.003361
v 0.819928 -0.118801 -0.003703
v 0.823819 0.123596 -0.003703
v 0.628698 0.352390 -0.003361
v 0.400252 0.546799 -0.003361
v -0.511321 0.417518 0.130535
v -0.351495 0.037447 0.026597
v -0.656542 0.114931 0.037904
v -0.656542 0.114931 -0.001480
v -0.656542 0.114931 -0.037904
v -0.351495 0.037447 -0.026597
v -0.511321 0.417518 -0.130535
v 0.034213 0.520289 -0.130535
v 0.400252 0.446993 -0.130535
v 0.730842 0.232684 -0.094838
v 0.935691 0.047532 -0.094838
v 0.935691 0.047532 -0.003703
v 0.935691 0.047532 0.094838
v 0.730842 0.232684 0.094838
v 0.400252 0.446993 0.130535
v 0.034213 0.520289 0.130535
v -0.259464 -0.112890 0.130535
v -0.351495 0.010997 0.026597
v -0.656542 -0.083456 0.037904
v -0.656542 -0.083456 -0.001480
v -0.656542 -0.083456 -0.037904
v -0.351495 0.010997 -0.026597
v -0.259464 -0.112890 -0.130535
v 0.034213 -0.139671 -0.130535
v 0.400252 -0.139671 -0.130535
v 0.730842 -0.096515 -0.094838
v 0.933259 -0.044835 -0.094838
v 0.933259 -0.044835 -0.003703
v 0.933259 -0.044835 0.094838
v 0.730842 -0.096515 0.094838
v 0.400252 -0.139671 0.130535
v 0.034213 -0.139671 0.130535
vt 0.375000 0.000000
vt 0.625000 0.000000
vt 0.375000 0.250000
vt 0.625000 0.250000
vt 0.375000 0.500000
vt 0.625000 0.500000
vt 0.375000 0.750000
vt 0.625000 0.750000
vt 0.375000 1.000000
vt 0.625000 1.000000
vt 0.875000 0.000000
vt 0.875000 0.250000
vt 0.125000 0.000000
vt 0.125000 0.250000
vt 0.453170 0.250000
vt 0.453170 0.500000
vt 0.453170 0.750000
vt 0.453170 0.000000
vt 0.453170 1.000000
vt 0.554317 0.250000
vt 0.554317 0.500000
vt 0.554317 0.750000
vt 0.554317 0.000000
vt 0.554317 1.000000
vt 0.504643 0.250000
vt 0.504643 0.500000
vt 0.504643 0.750000
vt 0.504643 0.000000
vt 0.504643 1.000000
vt 0.410428 0.250000
vt 0.410428 0.500000
vt 0.410428 0.750000
vt 0.410428 0.000000
vt 0.410428 1.000000
vt 0.599181 0.250000
vt 0.599181 0.500000
vt 0.599181 0.750000
vt 0.599181 0.000000
vt 0.599181 1.000000
vt 0.504643 0.379881
vt 0.453170 0.379881
vt 0.410428 0.379881
vt 0.245119 0.250000
vt 0.375000 0.379881
vt 0.245119 0.000000
vt 0.375000 0.870119
vt 0.410428 0.870119
vt 0.453170 0.870119
vt 0.504643 0.870119
vt 0.554317 0.870119
vt 0.599181 0.870119
vt 0.625000 0.870119
vt 0.754881 0.000000
vt 0.625000 0.379881
vt 0.754881 0.250000
vt 0.599181 0.379881
vt 0.554317 0.379881
vt 0.453170 0.192974
vt 0.410428 0.192974
vt 0.375000 0.192974
vt 0.245119 0.192974
vt 0.125000 0.192974
vt 0.375000 0.557026
vt 0.410428 0.557026
vt 0.453170 0.557026
vt 0.504643 0.557026
vt 0.554317 0.557026
vt 0.599181 0.557026
vt 0.625000 0.557026
vt 0.875000 0.192974
vt 0.754881 0.192974
vt 0.625000 0.192974
vt 0.599181 0.192974
vt 0.554317 0.192974
vt 0.504643 0.192974
vt 0.453170 0.069527
vt 0.410428 0.069527
vt 0.375000 0.069527
vt 0.245119 0.069527
vt 0.125000 0.069527
vt 0.375000 0.680473
vt 0.410428 0.680473
vt 0.453170 0.680473
vt 0.504643 0.680473
vt 0.554317 0.680473
vt 0.599181 0.680473
vt 0.625000 0.680473
vt 0.875000 0.069527
vt 0.754881 0.069527
vt 0.625000 0.069527
vt 0.599181 0.069527
vt 0.554317 0.069527
vt 0.504643 0.069527
vn 0.032790 0.039101 0.998697
vn -0.263056 0.133349 0.955521
vn -0.456690 -0.127748 0.880406
vn 0.033754 0.030289 0.998971
vn 0.705384 0.708825 0.000000
vn -0.998514 -0.054492 0.000000
vn -0.999614 -0.027786 0.000000
vn 0.705384 0.708825 0.000000
vn 0.033754 0.030289 -0.998971
vn -0.456690 -0.127748 -0.880406
vn -0.263056 0.133349 -0.955521
vn 0.032790 0.039101 -0.998697
vn 0.728027 -0.685549 0.000000
vn -0.943121 -0.332451 0.000000
vn -0.965601 -0.260028 0.000000
vn 0.728027 -0.685549 0.000000
vn 0.546551 -0.837426 0.000000
vn 0.546551 -0.837426 0.000000
vn 0.820785 -0.571238 0.000000
vn 0.820785 -0.571238 0.000000
vn -0.951154 -0.308716 0.000000
vn -0.951154 -0.308716 0.000000
vn -0.983769 -0.179440 0.000000
vn -0.984239 -0.176843 0.000000
vn -0.605956 0.795498 0.000000
vn -0.047142 0.998888 0.000000
vn -0.047142 0.998888 0.000000
vn -0.652164 0.758078 0.000000
vn -0.061487 -0.111584 -0.991851
vn -0.092031 -0.026311 -0.995409
vn -0.000933 -0.052130 -0.998640
vn -0.003372 -0.142322 -0.989815
vn -0.655081 -0.755559 0.000000
vn -0.707850 -0.706363 0.000000
vn 0.003234 -0.999995 0.000000
vn 0.003234 -0.999995 0.000000
vn -0.000933 -0.052130 0.998640
vn -0.092031 -0.026311 0.995409
vn -0.061487 -0.111584 0.991851
vn -0.003372 -0.142322 0.989815
vn 0.410601 0.911815 0.000000
vn 0.709113 0.705095 0.000000
vn 0.708209 0.706003 0.000000
vn 0.410601 0.911815 0.000000
vn 0.029423 -0.148818 -0.988427
vn 0.039541 -0.052175 -0.997855
vn 0.085360 -0.023442 -0.996074
vn 0.088400 -0.129735 -0.987600
vn 0.223571 -0.974688 0.000000
vn 0.223571 -0.974688 0.000000
vn 0.546248 -0.837623 0.000000
vn 0.550118 -0.835087 0.000000
vn 0.039541 -0.052175 0.997855
vn 0.029423 -0.148818 0.988427
vn 0.088400 -0.129735 0.987600
vn 0.085360 -0.023442 0.996074
vn 0.760878 0.648895 0.000000
vn 0.760878 0.648895 0.000000
vn -0.000427 -0.001705 -0.999998
vn -0.006294 -0.025159 -0.999664
vn 0.720669 -0.693280 0.000000
vn 0.720669 -0.693280 0.000000
vn -0.006294 -0.025159 0.999664
vn -0.000427 -0.001705 0.999998
vn -0.047142 0.998888 0.000000
vn -0.605956 0.795498 0.000000
vn -0.998514 -0.054493 0.000000
vn 0.705384 0.708826 0.000000
vn -0.951154 -0.308716 0.000000
vn -0.983769 -0.179440 0.000000
vn 0.728027 -0.685549 0.000000
vn -0.965601 -0.260027 0.000000
vn -0.655081 -0.755559 0.000000
vn 0.003234 -0.999995 0.000000
vn 0.223571 -0.974688 0.000000
vn 0.550118 -0.835087 0.000000
vn 0.720669 -0.693280 0.000000
vn 0.546551 -0.837426 0.000000
vn 0.820785 -0.571238 0.000000
vn 0.760878 0.648895 0.000000
vn 0.709113 0.705095 0.000000
vn 0.410601 0.911815 0.000000
vn -0.406538 -0.161126 0.899314
vn -0.517193 -0.248539 0.818987
vn -0.090797 0.029921 0.995420
vn -0.208554 0.432488 0.877188
vn 0.035765 -0.029583 0.998922
vn 0.035293 -0.040325 0.998563
vn -0.983672 0.179972 0.000000
vn -0.983160 0.182748 0.000000
vn -0.948081 0.318030 0.000000
vn -0.948081 0.318030 0.000000
vn -0.983160 0.182748 0.000000
vn -0.948081 0.318030 0.000000
vn 0.035293 -0.040325 -0.998563
vn -0.406538 -0.161126 -0.899314
vn -0.517193 -0.248539 -0.818987
vn 0.035765 -0.029583 -0.998922
vn -0.090797 0.029921 -0.995420
vn -0.208554 0.432488 -0.877188
vn -0.004567 0.117883 -0.993017
vn -0.015925 0.421113 -0.906868
vn 0.044653 0.057452 -0.997349
vn 0.119778 0.400285 -0.908529
vn 0.113281 0.010253 -0.993510
vn 0.320923 0.362205 -0.875109
vn 0.000420 0.000358 -1.000000
vn 0.180891 0.154177 0.971343
vn 0.562264 0.826958 0.000000
vn 0.838536 0.544846 0.000000
vn 0.838536 0.544846 0.000000
vn 0.562264 0.826958 0.000000
vn 0.838536 0.544846 0.000000
vn 0.562263 0.826958 0.000000
vn 0.320923 0.362205 0.875109
vn 0.113281 0.010253 0.993510
vn 0.000420 0.000358 1.000000
vn 0.180891 0.154177 -0.971343
vn 0.119778 0.400285 0.908529
vn 0.044653 0.057452 0.997349
vn -0.015925 0.421113 0.906868
vn -0.004567 0.117883 0.993017
s 1
g pCube1
usemtl initialShadingGroup
f 1/1/1 24/33/2 60/77/3 61/78/4
s 2
f 3/3/5 21/30/6 31/42/7 32/44/8
s 3
f 63/81/9 64/82/10 23/32/11 7/7/12
s 4
f 33/46/13 34/47/14 24/34/15 1/9/16
s 5
f 2/2/17 39/53/18 70/89/19 71/90/20
s 6
f 33/45/21 1/1/22 61/78/23 62/79/24
s 2
f 9/15/25 17/25/26 29/40/27 30/41/28
s 3
f 11/17/29 65/83/30 66/84/31 19/27/32
s 4
f 12/19/33 35/48/34 36/49/35 20/29/36
s 1
f 74/93/37 59/76/38 12/18/39 20/28/40
s 2
f 13/20/41 25/35/42 41/56/43 42/57/44
s 3
f 15/22/45 67/85/46 68/86/47 27/37/48
s 4
f 16/24/49 37/50/50 38/51/51 28/39/52
s 1
f 73/92/53 16/23/54 28/38/55 72/91/56
s 2
f 17/25/26 13/20/41 42/57/44 29/40/27
s 3
f 19/27/32 66/84/31 67/85/46 15/22/45
s 4
f 20/29/36 36/49/35 37/50/50 16/24/49
s 1
f 74/93/37 20/28/40 16/23/54 73/92/53
s 2
f 21/30/6 9/15/25 30/41/28 31/42/7
s 3
f 23/32/11 64/82/10 65/83/30 11/17/29
s 4
f 24/34/15 34/47/14 35/48/34 12/19/33
s 1
f 60/77/3 24/33/2 12/18/39 59/76/38
s 2
f 25/35/42 4/4/57 40/54/58 41/56/43
s 3
f 27/37/48 68/86/47 69/87/59 8/8/60
s 4
f 28/39/52 38/51/51 39/52/61 2/10/62
s 1
f 72/91/56 28/38/55 2/2/63 71/90/64
s 2
f 30/41/28 29/40/27 18/26/65 10/16/66
f 31/42/7 30/41/28 10/16/66 22/31/67
f 32/44/8 31/42/7 22/31/67 5/5/68
s 6
f 7/13/69 33/45/21 62/79/24 63/80/70
s 4
f 7/7/71 23/32/72 34/47/14 33/46/13
f 35/48/34 34/47/14 23/32/72 11/17/73
f 36/49/35 35/48/34 11/17/73 19/27/74
f 37/50/50 36/49/35 19/27/74 15/22/75
f 38/51/51 37/50/50 15/22/75 27/37/76
f 39/52/61 38/51/51 27/37/76 8/8/77
s 5
f 70/89/19 39/53/18 8/11/78 69/88/79
s 2
f 41/56/43 40/54/58 6/6/80 26/36/81
f 42/57/44 41/56/43 26/36/81 14/21/82
f 29/40/27 42/57/44 14/21/82 18/26/65
s 1
f 21/30/83 44/59/84 43/58/85 9/15/86
f 45/60/87 44/59/84 21/30/83 3/3/88
s 6
f 46/61/89 45/60/90 3/3/91 32/43/92
f 47/62/93 46/61/89 32/43/92 5/14/94
s 3
f 5/5/95 22/31/96 48/64/97 47/63/98
f 49/65/99 48/64/97 22/31/96 10/16/100
f 50/66/101 49/65/99 10/16/100 18/26/102
f 51/67/103 50/66/101 18/26/102 14/21/104
f 52/68/105 51/67/103 14/21/104 26/36/106
f 53/69/107 52/68/105 26/36/106 6/6/108
s 5
f 40/55/109 54/71/110 53/70/111 6/12/112
f 55/72/113 54/71/110 40/55/109 4/4/114
s 1
f 25/35/115 56/73/116 55/72/117 4/4/118
f 13/20/119 57/74/120 56/73/116 25/35/115
f 17/25/121 58/75/122 57/74/120 13/20/119
f 9/15/86 43/58/85 58/75/122 17/25/121
f 44/59/84 60/77/3 59/76/38 43/58/85
f 61/78/4 60/77/3 44/59/84 45/60/87
s 6
f 62/79/24 61/78/23 45/60/90 46/61/89
f 63/80/70 62/79/24 46/61/89 47/62/93
s 3
f 47/63/98 48/64/97 64/82/10 63/81/9
f 65/83/30 64/82/10 48/64/97 49/65/99
f 66/84/31 65/83/30 49/65/99 50/66/101
f 67/85/46 66/84/31 50/66/101 51/67/103
f 68/86/47 67/85/46 51/67/103 52/68/105
f 69/87/59 68/86/47 52/68/105 53/69/107
s 5
f 54/71/110 70/89/19 69/88/79 53/70/111
f 71/90/20 70/89/19 54/71/110 55/72/113
s 1
f 56/73/116 72/91/56 71/90/64 55/72/117
f 57/74/120 73/92/53 72/91/56 56/73/116
f 58/75/122 74/93/37 73/92/53 57/74/120
f 58/75/122 43/58/85 59/76/38 74/93/37
